<svg xmlns="http://www.w3.org/2000/svg" viewBox="0 0 170.57 170.57"><defs><style>.cls-1{fill:#1aba1a;}.cls-2{fill:none;stroke:#fff;stroke-miterlimit:10;stroke-width:8px;}.cls-3{fill:#fff;}</style></defs><g id="Layer_2" data-name="Layer 2"><g id="Layer_1-2" data-name="Layer 1"><rect class="cls-1" width="170.57" height="170.57" rx="66.94"/><path class="cls-2" d="M72.54,126.46H98c5.1,0,7.65,0,9.6-1a9.11,9.11,0,0,0,4-4c1-1.95,1-4.5,1-9.6V59.08c0-5.1,0-7.65-1-9.6a9.06,9.06,0,0,0-4-4c-1.95-1-4.5-1-9.6-1H72.54c-5.1,0-7.65,0-9.6,1a9.16,9.16,0,0,0-4,4c-1,2-1,4.5-1,9.6v52.81c0,5.1,0,7.65,1,9.6a9.22,9.22,0,0,0,4,4C64.89,126.46,67.44,126.46,72.54,126.46Z"/><ellipse class="cls-3" cx="85.29" cy="109.86" rx="6.14" ry="5.29"/></g></g></svg>